# xmcd
#
# Track frame offsets: 
#        150
#        25236
#        53619
#        80708
#        113480
#        137532
#        168438
#        200874
#        292973
#
# Disc length: 3911 seconds
#
# Revision: 0
# Processed by: cddbd v1.5.1PL2 Copyright (c) Steve Scherf et al.
# Submitted via: ExactAudioCopy v0.95a5
#
DISCID=770f4509
DTITLE=Sean Cotton and the Thursday Night Band - The Last Call Club
DYEAR=2006
DGENRE=Blues
TTITLE0=Midnight Creepin'
TTITLE1=(Honey) I Wish You Were Here
TTITLE2=Graceless Lady
TTITLE3=Midway Lights
TTITLE4=I Don't Mind The Rain
TTITLE5=Somethin' Sweet
TTITLE6=(Your Love) Haunts Me to the Bone
TTITLE7=Sleepin' Like a Vampire
TTITLE8=crowd cheers
EXTD=
EXTT0=
EXTT1=
EXTT2=
EXTT3=
EXTT4=
EXTT5=
EXTT6=
EXTT7=
EXTT8=
PLAYORDER=
